<svg width="117" height="66" viewBox="0 0 117 66" fill="none" xmlns="http://www.w3.org/2000/svg">
<g clip-path="url(#clip0_2378_258)">
<path fill-rule="evenodd" clip-rule="evenodd" d="M70.9253 43.4661H116.341V65.3024H70.9253V43.4661Z" fill="#004996"/>
<path d="M78.1922 49.6665V50.2861H75.9371V46.9056H78.1605V47.5252H76.6979V48.2334H78.0931V48.853H76.6979V49.6665H78.1901H78.1922Z" fill="white"/>
<path d="M81.619 49.2555V49.9932C81.2376 50.2166 80.8371 50.3304 80.4177 50.3304C79.874 50.3304 79.4419 50.1639 79.1216 49.833C78.7991 49.5021 78.639 49.0933 78.639 48.6064C78.639 48.1196 78.8076 47.7086 79.1469 47.3693C79.4862 47.03 79.9288 46.8614 80.4768 46.8614C80.913 46.8614 81.2818 46.9604 81.5832 47.1585V47.9109C81.2123 47.6812 80.8624 47.5653 80.5294 47.5653C80.1964 47.5653 79.9372 47.6622 79.7307 47.854C79.5241 48.0458 79.4209 48.2924 79.4209 48.5917C79.4209 48.8909 79.522 49.1396 79.7265 49.3335C79.9309 49.5295 80.1901 49.6265 80.5084 49.6265C80.6664 49.6265 80.8182 49.6033 80.9636 49.5569C81.109 49.5105 81.3261 49.4094 81.6148 49.2534L81.619 49.2555Z" fill="white"/>
<path d="M85.2735 46.9056V50.2861H84.5127V48.9183H82.9889V50.2861H82.2281V46.9056H82.9889V48.2629H84.5127V46.9056H85.2735Z" fill="white"/>
<path d="M87.7394 46.9056L89.0966 50.2861H88.2768L88.0239 49.618H86.654L86.4264 50.2861H85.6192L86.8542 46.9056H87.7373H87.7394ZM87.8047 49.0279L87.3094 47.7149L86.8605 49.0279H87.8047Z" fill="white"/>
<path d="M91.5519 46.9056V47.5252H90.2073V48.2797H91.5519V48.8994H90.2073V50.2861H89.4465V46.9056H91.5519Z" fill="white"/>
<path d="M93.6679 46.9056L95.0252 50.2861H94.2053L93.9524 49.618H92.5825L92.3549 50.2861H91.5477L92.7827 46.9056H93.6658H93.6679ZM93.7332 49.0279L93.238 47.7149L92.789 49.0279H93.7332Z" fill="white"/>
<path d="M97.5521 46.9056H98.3129V48.8256C98.3129 49.3188 98.1802 49.6939 97.9167 49.9489C97.6533 50.2039 97.276 50.3304 96.785 50.3304C96.2939 50.3304 95.9251 50.2018 95.6574 49.9426C95.3898 49.6855 95.2549 49.3145 95.2549 48.8298V46.9056H96.0178V48.8488C96.0178 49.0848 96.0874 49.2724 96.2265 49.4157C96.3656 49.5569 96.5489 49.6286 96.7744 49.6286C96.9999 49.6286 97.198 49.5569 97.3371 49.4115C97.4783 49.2661 97.5479 49.0595 97.5479 48.7919V46.9077L97.5521 46.9056Z" fill="white"/>
<path d="M98.9663 46.9056H100.315C100.836 46.9056 101.249 47.0637 101.55 47.3798C101.854 47.6959 102.005 48.1027 102.005 48.6022C102.005 49.1017 101.852 49.5379 101.544 49.8372C101.236 50.1365 100.798 50.2861 100.229 50.2861H98.9663V46.9056ZM99.7271 47.5252V49.6665H100.224C100.547 49.6665 100.794 49.5696 100.964 49.3736C101.135 49.1775 101.219 48.9183 101.219 48.598C101.219 48.2776 101.133 48.0036 100.96 47.8119C100.787 47.6201 100.539 47.5252 100.214 47.5252H99.725H99.7271Z" fill="white"/>
<path d="M104.102 46.9056L105.46 50.2861H104.64L104.387 49.618H103.017L102.789 50.2861H101.982L103.217 46.9056H104.1H104.102ZM104.168 49.0279L103.672 47.7149L103.224 49.0279H104.168Z" fill="white"/>
<path d="M108.545 47.1396V47.8772C108.155 47.6685 107.774 47.5653 107.403 47.5653C107.032 47.5653 106.768 47.6643 106.572 47.8645C106.376 48.0648 106.282 48.3198 106.282 48.6296C106.282 48.9394 106.379 49.167 106.572 49.3504C106.766 49.5337 107.021 49.6265 107.337 49.6265C107.506 49.6265 107.675 49.5864 107.843 49.5063V49.1122H107.401V48.4926H108.606V49.8751C108.484 50.01 108.301 50.1175 108.054 50.2039C107.807 50.2882 107.563 50.3304 107.321 50.3304C106.787 50.3304 106.351 50.1681 106.008 49.8435C105.666 49.519 105.493 49.1059 105.493 48.6043C105.493 48.1027 105.664 47.6728 106.008 47.3503C106.349 47.0257 106.794 46.8656 107.337 46.8656C107.786 46.8656 108.189 46.9583 108.543 47.1438L108.545 47.1396Z" fill="white"/>
<path d="M111.531 49.6665V50.2861H109.276V46.9056H111.5V47.5252H110.037V48.2334H111.432V48.853H110.037V49.6665H111.529H111.531Z" fill="white"/>
<path d="M84.068 55.2009V55.9386C83.6866 56.162 83.2861 56.2758 82.8667 56.2758C82.323 56.2758 81.8909 56.1093 81.5706 55.7784C81.2481 55.4475 81.0879 55.0387 81.0879 54.5518C81.0879 54.065 81.2565 53.654 81.5959 53.3147C81.9352 52.9754 82.3778 52.8068 82.9257 52.8068C83.362 52.8068 83.7308 52.9058 84.0322 53.1039V53.8563C83.6613 53.6266 83.3114 53.5107 82.9784 53.5107C82.6454 53.5107 82.3862 53.6076 82.1796 53.7994C81.9731 53.9912 81.8698 54.2378 81.8698 54.5371C81.8698 54.8363 81.971 55.085 82.1754 55.2789C82.3799 55.4749 82.6391 55.5719 82.9573 55.5719C83.1154 55.5719 83.2671 55.5487 83.4126 55.5023C83.558 55.456 83.7751 55.3548 84.0638 55.1988L84.068 55.2009Z" fill="white"/>
<path d="M86.2915 52.8089C86.812 52.8089 87.2336 52.9838 87.556 53.3294C87.8785 53.6751 88.0386 54.0818 88.0386 54.5434C88.0386 55.0049 87.8742 55.418 87.5476 55.7615C87.2209 56.1051 86.8015 56.2779 86.2894 56.2779C85.7772 56.2779 85.3494 56.1072 85.0248 55.7658C84.7003 55.4243 84.5359 55.0176 84.5359 54.5455C84.5359 54.0734 84.6982 53.6772 85.0206 53.3315C85.3431 52.9838 85.7667 52.811 86.2894 52.811L86.2915 52.8089ZM86.2915 55.574C86.5802 55.574 86.812 55.4791 86.9891 55.2895C87.1661 55.0998 87.2546 54.8511 87.2546 54.5434C87.2546 54.2357 87.1661 53.9849 86.9891 53.7952C86.812 53.6055 86.5802 53.5128 86.2915 53.5128C86.0027 53.5128 85.7667 53.6076 85.5897 53.7952C85.4126 53.9849 85.3241 54.2336 85.3241 54.5434C85.3241 54.8532 85.4126 55.0998 85.5897 55.2895C85.7667 55.4791 86.0006 55.574 86.2915 55.574Z" fill="white"/>
<path d="M90.6941 52.8531V53.4727H89.3495V54.2272H90.6941V54.8469H89.3495V56.2336H88.5887V52.8531H90.6941Z" fill="white"/>
<path d="M93.396 52.8531V53.4727H92.0514V54.2272H93.396V54.8469H92.0514V56.2336H91.2906V52.8531H93.396Z" fill="white"/>
<path d="M93.9946 52.8531H95.3603C95.6574 52.8531 95.8977 52.948 96.0831 53.1376C96.2686 53.3273 96.3613 53.557 96.3613 53.8247C96.3613 54.1977 96.1864 54.4738 95.8366 54.6509C95.9904 54.7288 96.1358 54.9354 96.2749 55.2747C96.414 55.614 96.5468 55.9322 96.6754 56.2315H95.8387C95.7881 56.1198 95.7017 55.9091 95.5773 55.595C95.453 55.281 95.3476 55.0808 95.2591 54.9923C95.1706 54.9038 95.0757 54.8595 94.9767 54.8595H94.7575V56.2315H93.9967V52.851L93.9946 52.8531ZM94.7554 53.4727V54.242H95.1579C95.2865 54.242 95.3877 54.2083 95.4635 54.1408C95.5394 54.0734 95.5752 53.9786 95.5752 53.8542C95.5752 53.5992 95.4298 53.4727 95.139 53.4727H94.7533H94.7554Z" fill="white"/>
<path d="M98.8124 52.8531L100.17 56.2336H99.3498L99.0969 55.5655H97.727L97.4994 56.2336H96.6922L97.9273 52.8531H98.8103H98.8124ZM98.8778 54.9754L98.3825 53.6624L97.9336 54.9754H98.8778Z" fill="white"/>
<path d="M103.255 53.0871V53.8247C102.865 53.6161 102.484 53.5128 102.113 53.5128C101.742 53.5128 101.478 53.6118 101.282 53.8121C101.089 54.0123 100.992 54.2673 100.992 54.5771C100.992 54.8869 101.089 55.1145 101.282 55.2979C101.476 55.4812 101.731 55.574 102.048 55.574C102.216 55.574 102.385 55.5339 102.553 55.4538V55.0597H102.111V54.4401H103.316V55.8227C103.194 55.9575 103.011 56.065 102.764 56.1514C102.517 56.2357 102.273 56.2779 102.031 56.2779C101.497 56.2779 101.061 56.1156 100.718 55.791C100.376 55.4665 100.203 55.0534 100.203 54.5518C100.203 54.0502 100.374 53.6203 100.718 53.2978C101.059 52.9733 101.504 52.8131 102.048 52.8131C102.496 52.8131 102.899 52.9058 103.253 53.0913L103.255 53.0871Z" fill="white"/>
<path d="M106.242 55.614V56.2336H103.986V52.8531H106.21V53.4727H104.747V54.1809H106.142V54.8005H104.747V55.614H106.239H106.242Z" fill="white"/>
<path d="M82.7086 61.5594V62.179H80.4536V58.7985H82.677V59.4181H81.2144V60.1263H82.6096V60.7459H81.2144V61.5594H82.7065H82.7086Z" fill="white"/>
<path d="M86.047 58.7985V59.4181H84.9405V62.179H84.1797V59.4181H83.0733V58.7985H86.0491H86.047Z" fill="white"/>
<path d="M87.7562 58.7985L89.1135 62.179H88.2936L88.0407 61.5109H86.6708L86.4432 62.179H85.636L86.8711 58.7985H87.7541H87.7562ZM87.8216 60.9208L87.3263 59.6078L86.8774 60.9208H87.8216Z" fill="white"/>
<path d="M90.2516 58.7985V62.179H89.4907V58.7985H90.2516Z" fill="white"/>
<path d="M93.2148 61.5594V62.179H90.9597V58.7985H93.1832V59.4181H91.7205V60.1263H93.1157V60.7459H91.7205V61.5594H93.2127H93.2148Z" fill="white"/>
<path d="M95.4361 60.0525L96.4182 58.7985H97.08V62.179H96.3192V60.0694L95.493 61.1295H95.3792L94.5531 60.0694V62.179H93.7922V58.7985H94.454L95.4382 60.0525H95.4361Z" fill="white"/>
<path d="M100.016 61.5594V62.179H97.7608V58.7985H99.9842V59.4181H98.5216V60.1263H99.9168V60.7459H98.5216V61.5594H100.014H100.016Z" fill="white"/>
<path d="M103.691 58.7985V62.179H103.049L101.36 60.0125V62.179H100.6V58.7985H101.297L102.931 60.866V58.7985H103.691Z" fill="white"/>
<path d="M107.133 58.7985V59.4181H106.027V62.179H105.266V59.4181H104.159V58.7985H107.135H107.133Z" fill="white"/>
<path d="M93.7859 0L70.9253 17.8278V39.7125H116.343V17.8278L93.7859 0ZM111.258 34.6439H75.8654V20.3926L93.6468 6.37744L111.26 20.5107V34.6439H111.258Z" fill="#DF2539"/>
<path d="M93.6447 7.78949L76.9824 20.8626V33.5838H110.313V20.9511L93.6426 7.78949H93.6447ZM89.986 19.3726H97.7186V24.3633L89.986 19.3726ZM97.4151 24.6309H89.5919V19.5812L97.4151 24.6309ZM89.5919 18.9827V12.9656L97.5057 18.9827H89.5919ZM89.202 24.6309H81.4673L89.202 19.6381V24.6309ZM97.7186 25.0208V30.0115L89.986 25.0208H97.7186ZM98.1085 25.0208H105.892L98.1085 30.0431V25.0208ZM98.1085 19.3726H105.877L98.1085 24.3864V19.3726ZM98.1507 18.9827L98.1085 18.9511V12.9108L105.909 18.9827H98.1507ZM97.7186 12.6073V18.656L89.691 12.5526H97.6491L97.7186 12.6073ZM89.202 12.8813V18.9827H81.3282L89.202 12.8813ZM88.8964 19.3726L81.0036 24.4665V19.3726H88.8964ZM88.8585 25.0208L81.0057 30.0895V25.0208H88.8585ZM89.202 25.2632V30.2433H81.4884L89.202 25.2632ZM89.5919 25.2316L97.3561 30.2433H89.5919V25.2316ZM106.338 25.1978V30.2433H98.5216L106.338 25.1978ZM98.4478 24.633L106.338 19.5391V24.633H98.4478ZM93.6489 9.4397L97.1496 12.1648H90.1314L93.6489 9.4397ZM109.078 32.4647H78.2196V21.3937L80.6158 19.537V31.5352H80.1606V31.9251H81.4589V31.5352H81.0057V30.6332H89.2041V31.5352H88.6772V31.9251H89.9755V31.5352H89.594V30.6332H97.7207V31.5352H97.2676V31.9251H98.5658V31.5352H98.1127V30.6332H106.343V31.5352H105.854V31.9251H107.152V31.5352H106.733V19.6234L109.083 21.4527V32.4647H109.078Z" fill="#0068AB"/>
<path d="M77.3786 36.2836V36.7177C77.111 36.5849 76.8981 36.5196 76.7401 36.5196C76.6494 36.5196 76.5778 36.5365 76.5251 36.5702C76.4724 36.6039 76.445 36.6482 76.445 36.703C76.445 36.7451 76.464 36.7852 76.5019 36.8231C76.5398 36.861 76.6347 36.9116 76.7822 36.9706C76.9319 37.0317 77.0499 37.0865 77.1405 37.1392C77.2311 37.1919 77.307 37.2636 77.3723 37.3584C77.4377 37.4533 77.4693 37.5734 77.4693 37.7167C77.4693 37.9232 77.3976 38.0876 77.2564 38.2099C77.1152 38.3321 76.9276 38.3932 76.6958 38.3932C76.445 38.3932 76.2047 38.3216 75.9687 38.1783V37.6977C76.1036 37.7968 76.2216 37.8706 76.327 37.9169C76.4303 37.9633 76.5398 37.9844 76.6579 37.9844C76.8539 37.9844 76.9529 37.9169 76.9529 37.7799C76.9529 37.7336 76.934 37.6893 76.8939 37.6472C76.8539 37.605 76.759 37.5544 76.6094 37.4954C76.4598 37.4364 76.3396 37.3816 76.2511 37.3289C76.1626 37.2783 76.0867 37.2046 76.0235 37.1097C75.9603 37.0149 75.9266 36.8948 75.9266 36.7472C75.9266 36.5554 75.9961 36.4016 76.1352 36.2836C76.2743 36.1655 76.4619 36.1065 76.6937 36.1065C76.9087 36.1065 77.1363 36.1634 77.3744 36.2794L77.3786 36.2836Z" fill="white"/>
<path d="M78.5526 38.3658V37.3268L77.758 36.1403H78.365L78.8012 36.84L79.2396 36.1403H79.8466L79.052 37.3289V38.3658H78.5504H78.5526Z" fill="white"/>
<path d="M82.3019 36.1403V38.3658H81.8783L80.7676 36.939V38.3658H80.266V36.1403H80.7254L81.8003 37.5017V36.1403H82.3019Z" fill="white"/>
<path d="M82.9405 36.1403H83.8278C84.1713 36.1403 84.441 36.2435 84.6413 36.4522C84.8415 36.6608 84.9405 36.9285 84.9405 37.2573C84.9405 37.586 84.8394 37.8727 84.637 38.0708C84.4347 38.2689 84.146 38.3658 83.7709 38.3658H82.9384V36.1403H82.9405ZM83.4421 36.5491V37.9591H83.7687C83.9816 37.9591 84.1439 37.8937 84.2556 37.7652C84.3673 37.6366 84.4242 37.4659 84.4242 37.2552C84.4242 37.0444 84.3673 36.8632 84.2535 36.7388C84.1397 36.6145 83.9753 36.5491 83.7624 36.5491H83.4421Z" fill="white"/>
<path d="M86.0154 36.1403V38.3658H85.5138V36.1403H86.0154Z" fill="white"/>
<path d="M88.5444 37.6872V38.174C88.2937 38.3216 88.0281 38.3953 87.7541 38.3953C87.3958 38.3953 87.1113 38.2857 86.9006 38.0687C86.6898 37.8516 86.5823 37.5818 86.5823 37.2615C86.5823 36.9411 86.694 36.6714 86.9174 36.448C87.1408 36.2246 87.4317 36.1129 87.7921 36.1129C88.0787 36.1129 88.3232 36.1782 88.5213 36.3089V36.8041C88.2768 36.6524 88.0471 36.5765 87.8279 36.5765C87.6087 36.5765 87.438 36.6397 87.3031 36.7662C87.1682 36.8926 87.0987 37.0549 87.0987 37.2509C87.0987 37.4469 87.1661 37.6113 87.2989 37.7399C87.4338 37.8684 87.6045 37.9317 87.8131 37.9317C87.9164 37.9317 88.0176 37.9169 88.1124 37.8853C88.2093 37.8558 88.3527 37.7884 88.5423 37.6851L88.5444 37.6872Z" fill="white"/>
<path d="M90.3106 36.1403L91.2042 38.3658H90.6646L90.4981 37.9254H89.5961L89.4465 38.3658H88.9154L89.7289 36.1403H90.3106ZM90.3527 37.5376L90.0261 36.6735L89.731 37.5376H90.3527Z" fill="white"/>
<path d="M93.0883 36.1403V36.5491H92.3591V38.3658H91.8575V36.5491H91.1283V36.1403H93.0883Z" fill="white"/>
<path d="M95.9778 36.1403V36.5491H95.0926V37.0465H95.9778V37.4554H95.0926V38.3679H94.591V36.1424H95.9778V36.1403Z" fill="white"/>
<path d="M96.5637 36.1403H97.4636C97.6575 36.1403 97.8177 36.2035 97.9399 36.3278C98.0621 36.4522 98.1233 36.6039 98.1233 36.781C98.1233 37.0254 98.0073 37.2067 97.7776 37.3247C97.8788 37.3753 97.9757 37.5123 98.0664 37.7357C98.157 37.9591 98.2455 38.1698 98.3298 38.3658H97.7797C97.746 38.2921 97.6891 38.153 97.609 37.9464C97.5268 37.7399 97.4573 37.6092 97.3983 37.5502C97.3392 37.4912 97.2781 37.4617 97.2128 37.4617H97.0695V38.3658H96.5679V36.1403H96.5637ZM97.0653 36.5491V37.0549H97.3308C97.4151 37.0549 97.4826 37.0339 97.531 36.9896C97.5816 36.9453 97.6048 36.8821 97.6048 36.7999C97.6048 36.6313 97.51 36.5491 97.3182 36.5491H97.0653Z" fill="white"/>
<path d="M99.9273 36.1403L100.821 38.3658H100.281L100.115 37.9254H99.2129L99.0632 38.3658H98.5321L99.3456 36.1403H99.9273ZM99.9695 37.5376L99.6428 36.6735L99.3477 37.5376H99.9695Z" fill="white"/>
<path d="M103.28 36.1403V38.3658H102.857L101.746 36.939V38.3658H101.245V36.1403H101.704L102.779 37.5017V36.1403H103.28Z" fill="white"/>
<path d="M105.799 37.6872V38.174C105.531 38.33 105.251 38.4038 104.958 38.3932L104.941 38.4417C105.063 38.4902 105.125 38.5703 105.125 38.6798C105.125 38.7663 105.095 38.8316 105.036 38.8801C104.977 38.9264 104.899 38.9517 104.802 38.9517C104.705 38.9517 104.633 38.9412 104.585 38.9222V38.7557C104.735 38.762 104.808 38.7262 104.808 38.6546C104.808 38.5934 104.768 38.5639 104.688 38.5639L104.783 38.3806C104.503 38.3384 104.275 38.2141 104.1 38.0075C103.925 37.801 103.839 37.5523 103.839 37.2615C103.839 36.92 103.955 36.6418 104.189 36.4311C104.423 36.2182 104.709 36.1129 105.049 36.1129C105.335 36.1129 105.58 36.1782 105.778 36.3089V36.8041C105.533 36.6524 105.304 36.5765 105.084 36.5765C104.865 36.5765 104.703 36.6376 104.564 36.762C104.425 36.8842 104.355 37.0486 104.355 37.253C104.355 37.4575 104.423 37.6219 104.56 37.7462C104.697 37.8705 104.867 37.9338 105.07 37.9338C105.272 37.9338 105.508 37.8516 105.799 37.6893V37.6872Z" fill="white"/>
<path d="M107.565 36.1403L108.459 38.3658H107.919L107.753 37.9254H106.851L106.701 38.3658H106.17L106.983 36.1403H107.565ZM107.607 37.5376L107.281 36.6735L106.985 37.5376H107.607Z" fill="white"/>
<path d="M109.399 36.1403V38.3658H108.897V36.1403H109.399Z" fill="white"/>
<path d="M111.418 36.2836V36.7177C111.15 36.5849 110.937 36.5196 110.779 36.5196C110.688 36.5196 110.617 36.5365 110.564 36.5702C110.511 36.6039 110.484 36.6482 110.484 36.703C110.484 36.7451 110.503 36.7852 110.541 36.8231C110.579 36.861 110.674 36.9116 110.821 36.9706C110.971 37.0317 111.089 37.0865 111.18 37.1392C111.27 37.1919 111.346 37.2636 111.411 37.3584C111.477 37.4533 111.508 37.5734 111.508 37.7167C111.508 37.9232 111.437 38.0876 111.295 38.2099C111.154 38.3321 110.967 38.3932 110.735 38.3932C110.484 38.3932 110.244 38.3216 110.008 38.1783V37.6977C110.143 37.7968 110.261 37.8706 110.366 37.9169C110.469 37.9633 110.579 37.9844 110.697 37.9844C110.893 37.9844 110.992 37.9169 110.992 37.7799C110.992 37.7336 110.973 37.6893 110.933 37.6472C110.893 37.605 110.798 37.5544 110.648 37.4954C110.499 37.4364 110.379 37.3816 110.29 37.3289C110.202 37.2783 110.126 37.2046 110.063 37.1097C109.999 37.0149 109.966 36.8948 109.966 36.7472C109.966 36.5554 110.035 36.4016 110.174 36.2836C110.313 36.1655 110.501 36.1065 110.733 36.1065C110.948 36.1065 111.175 36.1634 111.413 36.2794L111.418 36.2836Z" fill="white"/>
<path d="M37.7167 46.8276V43.4893H25.5013V60.1958H30.4161V53.4432H37.2615V50.0606H30.4161V46.8276H37.7167Z" fill="#004996"/>
<path d="M51.146 46.8276V43.4893H38.9306V60.1958H43.8454V53.4432H50.6908V50.0606H43.8454V46.8276H51.146Z" fill="#004996"/>
<path d="M64.2044 51.2282C65.8693 50.657 66.7608 49.1333 66.7608 47.8371C66.7608 44.9519 64.2507 43.4893 59.3022 43.4893H52.3452V60.1958H60.455C65.9916 60.1958 67.1549 57.5508 67.1549 55.3316C67.1549 53.812 66.6238 51.9279 64.2044 51.2261V51.2282ZM57.3064 53.2008H58.8006C60.9587 53.2008 61.964 53.8057 61.964 55.1061C61.964 56.4064 61.081 56.8743 58.8154 56.8743H57.3043V53.2029L57.3064 53.2008ZM59.5151 49.9531H57.3064V46.7054H59.5151C61.0831 46.7054 61.8144 47.247 61.8144 48.4125C61.8144 49.0743 61.5763 49.9531 59.5151 49.9531Z" fill="#004996"/>
<path fill-rule="evenodd" clip-rule="evenodd" d="M0.0147533 60.1431C0.0147533 60.1431 22.791 32.8757 66.6765 31.5858V25.0145C22.0323 28.7786 0.0147533 56.3053 0.0147533 56.3053V60.1452V60.1431Z" fill="#00903E"/>
<path fill-rule="evenodd" clip-rule="evenodd" d="M8.89175 21.145V45.15C12.3671 42.3133 16.8583 39.232 22.3674 36.0918V11.4798L8.89175 21.145Z" fill="#004996"/>
<path fill-rule="evenodd" clip-rule="evenodd" d="M38.5724 22.0555L25.5688 15.8193V34.3467C29.453 32.313 33.7924 30.355 38.5724 28.6416V22.0555Z" fill="#004996"/>
<path fill-rule="evenodd" clip-rule="evenodd" d="M1.53219 63.315H0.560608V63.8756H1.53219V64.3161H0.560608V65.3319H0V62.8597H1.53219V63.315Z" fill="#004996"/>
<path fill-rule="evenodd" clip-rule="evenodd" d="M3.62709 65.3319H1.98742V62.8597H3.59548V63.315H2.53327V63.8313H3.55122V64.2865H2.53327V64.8788H3.62709V65.3319Z" fill="#004996"/>
<path fill-rule="evenodd" clip-rule="evenodd" d="M5.02229 62.8597C5.84213 62.8597 6.25099 63.4204 6.25099 64.1032C6.25099 64.786 5.85688 65.3319 4.96117 65.3319H4.05071V62.8576H5.02229V62.8597ZM4.59656 64.8788H4.96117C5.52178 64.8788 5.69038 64.4699 5.69038 64.1053C5.69038 63.6796 5.47752 63.3171 4.94642 63.3171H4.59656V64.8809V64.8788Z" fill="#004996"/>
<path fill-rule="evenodd" clip-rule="evenodd" d="M8.31639 65.3319H6.67672V62.8597H8.28478V63.315H7.22257V63.8313H8.24052V64.2865H7.22257V64.8788H8.31639V65.3319Z" fill="#004996"/>
<path fill-rule="evenodd" clip-rule="evenodd" d="M9.72634 62.8597C10.1816 62.8597 10.4555 63.2096 10.4555 63.5721C10.4555 63.8461 10.3333 64.0568 10.0762 64.1791C10.3038 64.3013 10.3649 64.6195 10.6832 65.3319H10.0762C9.83382 64.8008 9.7432 64.3308 9.45446 64.3308H9.28797V65.3319H8.74211V62.8576H9.72844L9.72634 62.8597ZM9.28586 63.8756H9.57459C9.74109 63.8756 9.87808 63.8145 9.87808 63.6016C9.87808 63.4035 9.7727 63.3129 9.57459 63.3129H9.28586V63.8735V63.8756Z" fill="#004996"/>
<path fill-rule="evenodd" clip-rule="evenodd" d="M13.2312 65.3319H12.639L12.4577 64.8472H11.4566L11.2901 65.3319H10.6979L11.5936 62.8576H12.247L13.2333 65.3319H13.2312ZM11.9266 63.4499L11.6084 64.4214H12.2912L11.9266 63.4499Z" fill="#004996"/>
<path fill-rule="evenodd" clip-rule="evenodd" d="M15.1132 63.315H14.2934V65.3319H13.7475V63.315H12.9446V62.8597H15.1132V63.315Z" fill="#004996"/>
<path fill-rule="evenodd" clip-rule="evenodd" d="M16.0237 65.3319H15.4631V62.8597H16.0237V65.3319Z" fill="#004996"/>
<path fill-rule="evenodd" clip-rule="evenodd" d="M17.7076 65.3635C16.8878 65.3635 16.4326 64.727 16.4326 64.1032C16.4326 63.4794 16.873 62.8281 17.7076 62.8281C18.5422 62.8281 18.9827 63.511 18.9827 64.1032C18.9827 64.7397 18.5127 65.3635 17.7076 65.3635ZM17.7076 63.3445C17.2819 63.3445 17.01 63.648 17.01 64.1032C17.01 64.5584 17.284 64.8619 17.7076 64.8619C18.1312 64.8619 18.4052 64.5584 18.4052 64.1032C18.4052 63.648 18.1312 63.3445 17.7076 63.3445Z" fill="#004996"/>
<path fill-rule="evenodd" clip-rule="evenodd" d="M21.6382 65.3319H21.1682L19.9395 63.7554V65.3319H19.3937V62.8597H19.8932L21.0776 64.3772V62.8597H21.6382V65.3319Z" fill="#004996"/>
<path fill-rule="evenodd" clip-rule="evenodd" d="M24.5824 63.315H23.5961V63.8756H24.5824V64.3161H23.5961V65.3319H23.0503V62.8597H24.5824V63.315Z" fill="#004996"/>
<path fill-rule="evenodd" clip-rule="evenodd" d="M26.0093 62.8597C26.4645 62.8597 26.7385 63.2096 26.7385 63.5721C26.7385 63.8461 26.6015 64.0568 26.3591 64.1791C26.5867 64.3013 26.6478 64.6195 26.9661 65.3319H26.3591C26.1167 64.8008 26.0261 64.3308 25.7226 64.3308H25.5709V65.3319H25.0103V62.8576H26.0114L26.0093 62.8597ZM25.5688 63.8756H25.8575C26.0093 63.8756 26.161 63.8145 26.161 63.6016C26.161 63.4035 26.0556 63.3129 25.8428 63.3129H25.5688V63.8735V63.8756Z" fill="#004996"/>
<path fill-rule="evenodd" clip-rule="evenodd" d="M29.5141 65.3319H28.9071L28.7259 64.8472H27.7396L27.5731 65.3319H26.9808L27.8765 62.8576H28.5299L29.5162 65.3319H29.5141ZM28.2095 63.4499L27.8913 64.4214H28.5741L28.2095 63.4499Z" fill="#004996"/>
<path fill-rule="evenodd" clip-rule="evenodd" d="M32.0179 65.3319H31.5626L30.3339 63.7554V65.3319H29.7712V62.8597H30.2876L31.472 64.3772V62.8597H32.0179V65.3319Z" fill="#004996"/>
<path fill-rule="evenodd" clip-rule="evenodd" d="M34.5975 65.1212C34.2793 65.3024 34.0664 65.3635 33.6723 65.3635L33.6428 65.4394C33.7798 65.4858 33.8557 65.5764 33.8557 65.6965C33.8557 65.8778 33.7334 66 33.4911 66C33.3688 66 33.3098 65.9853 33.2487 65.9705V65.7893C33.4616 65.7893 33.5058 65.7429 33.5058 65.667C33.5058 65.6375 33.4763 65.5764 33.3688 65.5764L33.4742 65.3488C32.7766 65.2434 32.4267 64.6807 32.4267 64.1053C32.4267 63.452 32.9115 62.8303 33.7629 62.8303C34.0812 62.8303 34.3552 62.9061 34.568 63.0579V63.6037C34.3256 63.452 34.0833 63.3466 33.8093 63.3466C33.3393 63.3466 33.0042 63.6649 33.0042 64.1053C33.0042 64.5458 33.3225 64.864 33.7924 64.864C34.0812 64.864 34.2772 64.7587 34.5975 64.5901V65.1212Z" fill="#004996"/>
<path fill-rule="evenodd" clip-rule="evenodd" d="M37.3289 65.3319H36.7367L36.5386 64.8472H35.5522L35.3857 65.3319H34.7935L35.6892 62.8576H36.3426L37.3289 65.3319ZM36.0243 63.4499L35.7061 64.4214H36.3889L36.0243 63.4499Z" fill="#004996"/>
<path fill-rule="evenodd" clip-rule="evenodd" d="M38.1635 65.3319H37.6029V62.8597H38.1635V65.3319Z" fill="#004996"/>
<path fill-rule="evenodd" clip-rule="evenodd" d="M40.1657 63.5131C39.8474 63.3466 39.6493 63.2855 39.4533 63.2855C39.2573 63.2855 39.1351 63.3613 39.1351 63.4836C39.1351 63.8629 40.2584 63.7575 40.2584 64.6216C40.2584 65.0916 39.9085 65.3656 39.4091 65.3656C39.0297 65.3656 38.8316 65.2602 38.604 65.138V64.6069C38.9222 64.8345 39.1203 64.9251 39.3627 64.9251C39.5755 64.9251 39.6957 64.8345 39.6957 64.6975C39.6957 64.2887 38.5576 64.4404 38.5576 63.5447C38.5576 63.119 38.8906 62.8323 39.4069 62.8323C39.6641 62.8323 39.8769 62.8935 40.1657 63.0304V63.5152V63.5131Z" fill="#004996"/>
<path fill-rule="evenodd" clip-rule="evenodd" d="M42.2901 65.3319H40.6525V62.8597H42.2606V63.315H41.1984V63.8313H42.2142V64.2865H41.1984V64.8788H42.2901V65.3319Z" fill="#004996"/>
<path fill-rule="evenodd" clip-rule="evenodd" d="M44.5978 62.8597C45.4029 62.8597 45.8265 63.4204 45.8265 64.1032C45.8265 64.786 45.4177 65.3319 44.5367 65.3319H43.6115V62.8576H44.5978V62.8597ZM44.1721 64.8788H44.5367C45.0826 64.8788 45.2491 64.4699 45.2491 64.1053C45.2491 63.6796 45.051 63.3171 44.5199 63.3171H44.17V64.8809L44.1721 64.8788Z" fill="#004996"/>
<path fill-rule="evenodd" clip-rule="evenodd" d="M48.4357 62.8597V64.2718C48.4357 65.0916 47.9341 65.3635 47.3271 65.3635C46.6738 65.3635 46.2185 65.0305 46.2185 64.2718V62.8597H46.7644V64.2865C46.7644 64.6364 46.992 64.864 47.3103 64.864C47.6285 64.864 47.8877 64.6828 47.8877 64.2423V62.8618H48.4336L48.4357 62.8597Z" fill="#004996"/>
<path fill-rule="evenodd" clip-rule="evenodd" d="M50.7877 62.8597C51.3041 62.8597 51.5169 63.2096 51.5169 63.4815C51.5169 63.6943 51.4115 63.8756 51.2134 63.9831C51.5317 64.0737 51.6982 64.3161 51.6982 64.6195C51.6982 64.8935 51.5612 65.3319 50.9099 65.3319H49.8182V62.8576H50.7898L50.7877 62.8597ZM50.3788 63.8461H50.6676C50.8657 63.8461 50.9563 63.7091 50.9563 63.5721C50.9563 63.4499 50.8657 63.315 50.6676 63.315H50.3788V63.8461ZM50.3788 64.8788H50.6971C51.0006 64.8788 51.1059 64.7881 51.1059 64.5753C51.1059 64.394 50.9542 64.3013 50.773 64.3013H50.3788V64.8788Z" fill="#004996"/>
<path fill-rule="evenodd" clip-rule="evenodd" d="M54.3853 65.3319H53.7931L53.6118 64.8472H52.6107L52.459 65.3319H51.8668L52.7625 62.8576H53.399L54.3853 65.3319ZM53.0955 63.4499L52.7625 64.4214H53.4453L53.0955 63.4499Z" fill="#004996"/>
<path fill-rule="evenodd" clip-rule="evenodd" d="M56.2673 63.315H55.4623V65.3319H54.9016V63.315H54.0966V62.8597H56.2673V63.315Z" fill="#004996"/>
<path fill-rule="evenodd" clip-rule="evenodd" d="M57.1778 65.3319H56.6151V62.8597H57.1778V65.3319Z" fill="#004996"/>
<path fill-rule="evenodd" clip-rule="evenodd" d="M59.6057 62.8597H60.0757V65.3319H59.5298V63.7997L58.9228 64.5753H58.847L58.24 63.7997V65.3319H57.692V62.8597H58.1789L58.8912 63.785L59.6057 62.8597Z" fill="#004996"/>
<path fill-rule="evenodd" clip-rule="evenodd" d="M62.2001 65.3319H60.5604V62.8597H62.1853V63.315H61.1231V63.8313H62.139V64.2865H61.1231V64.8788H62.2001V65.3319Z" fill="#004996"/>
<path fill-rule="evenodd" clip-rule="evenodd" d="M64.8851 65.3319H64.4151L63.1864 63.7554V65.3319H62.6406V62.8597H63.1401L64.3245 64.3772V62.8597H64.8851V65.3319Z" fill="#004996"/>
<path fill-rule="evenodd" clip-rule="evenodd" d="M67.3889 63.315H66.5859V65.3319H66.0379V63.315H65.235V62.8597H67.3889V63.315Z" fill="#004996"/>
</g>
<defs>
<clipPath id="clip0_2378_258">
<rect width="116.341" height="66" fill="white"/>
</clipPath>
</defs>
</svg>
